<?xml version="1.0" standalone="no"?>
<!DOCTYPE svg PUBLIC "-//W3C//DTD SVG 20010904//EN"
 "http://www.w3.org/TR/2001/REC-SVG-20010904/DTD/svg10.dtd">
<svg version="1.0" xmlns="http://www.w3.org/2000/svg"
 width="512.000000pt" height="512.000000pt" viewBox="0 0 512.000000 512.000000"
 preserveAspectRatio="xMidYMid meet">
<metadata>
Created by potrace 1.11, written by Peter Selinger 2001-2013
</metadata>
<g transform="translate(0.000000,512.000000) scale(0.100000,-0.100000)"
fill="#000000" stroke="none">
<path d="M2211 4826 c-13 -15 -12 -30 3 -67 6 -14 2 -16 -31 -10 -71 13 -273
13 -289 1 -25 -21 -16 -46 36 -96 27 -26 47 -50 44 -53 -3 -3 -55 -4 -115 -3
-157 4 -175 -17 -89 -103 27 -28 50 -53 50 -56 0 -4 -18 -14 -40 -23 -22 -9
-59 -28 -83 -43 -23 -14 -48 -26 -54 -26 -7 0 -11 -2 -8 -5 2 -3 -18 -22 -45
-44 -37 -29 -48 -44 -45 -60 5 -26 16 -34 82 -55 l52 -16 -23 -46 c-28 -55
-75 -200 -83 -256 -10 -70 -11 -86 -12 -272 -1 -177 -2 -183 -21 -183 -59 0
-118 -61 -145 -150 -21 -66 -28 -252 -14 -330 38 -200 141 -368 260 -422 45
-21 47 -23 52 -73 13 -126 67 -275 122 -339 24 -28 25 -33 25 -190 l0 -161
-361 -78 c-199 -43 -369 -80 -378 -82 -393 -80 -447 -98 -565 -189 -125 -98
-225 -254 -270 -424 -44 -168 -35 -218 48 -256 199 -91 508 -203 723 -262 34
-9 60 -21 57 -25 -3 -5 2 -6 10 -3 8 3 48 -3 88 -14 76 -21 205 -51 248 -58
14 -2 45 -9 70 -14 57 -12 210 -38 275 -46 28 -3 61 -7 75 -9 14 -2 52 -7 85
-10 33 -3 74 -8 90 -10 202 -27 901 -27 1068 0 12 2 49 6 82 10 85 9 107 12
300 41 17 3 37 7 45 9 8 2 32 6 52 9 31 5 231 47 291 62 9 2 25 6 35 8 9 2 59
16 111 31 52 14 100 24 108 21 8 -3 12 -2 9 2 -3 5 30 19 72 31 42 12 86 26
97 31 19 9 109 39 130 44 6 2 24 8 40 15 17 7 80 32 140 56 179 70 239 101
254 128 37 69 -32 323 -121 450 -11 15 -16 27 -12 27 4 0 -37 43 -90 95 -53
52 -103 95 -111 95 -8 0 -15 4 -15 8 0 24 -171 81 -351 116 -62 13 -183 38
-239 51 -48 11 -171 38 -205 46 -22 4 -49 11 -60 13 -11 3 -102 22 -202 43
l-183 37 0 159 0 159 31 39 c72 92 105 186 123 352 2 22 14 35 52 57 65 39 82
55 130 120 78 106 124 252 129 410 4 125 -7 196 -41 267 -27 57 -65 90 -113
99 l-31 7 -1 161 c0 242 -6 313 -33 441 -38 174 -155 363 -296 476 -99 80
-296 177 -470 234 -47 16 -90 32 -96 36 -6 5 -13 6 -16 4 -3 -3 -25 1 -49 9
-54 17 -233 53 -314 61 -49 6 -63 4 -74 -9z"/>
</g>
</svg>
